<?xml version="1.0" encoding="utf-8"?>
<!-- Cargo Container icon by Arthur Shlain from Usefulicons.com -->
<svg class="svg-color" xmlns="http://www.w3.org/2000/svg" xmlns:xlink="http://www.w3.org/1999/xlink"
     xml:space="preserve" version="1.1" x="0px" y="0px" viewBox="0 0 100 100" width="400px" height="400px">
<path d="M81.26,42.841L61.832,31.508C61.286,33.121,60.419,34.582,59.308,35.824L78.74,47.159L81.26,42.841Z"
      stroke="none"></path>
  <path
    d="M15,50L15,90L85,90L85,50L15,50ZM30,85L25,85L25,55L30,55L30,85ZM45,85L40,85L40,55L45,55L45,85ZM60,85L55,85L55,55L60,55L60,85ZM75,85L70,85L70,55L75,55L75,85Z"
    stroke="none"></path>
  <path
    d="M45.152,33.222C46.782,34.604,49.009,35.303,51.393,34.875C54.317,34.349,56.691,32.034,57.323,29.131C57.706,27.369,57.446,25.701,56.763,24.273L54.061,26.975L53.78,26.811C52.002,25.774,49.897,25.534,47.964,26.078C48.048,25.958,48.13,25.836,48.233,25.732L49.572,24.393C51.447,22.518,52.501,19.974,52.501,17.322L52.501,10L47.501,10L47.501,17.517C47.501,19.088,46.76,20.564,45.504,21.506C43.68,22.873,42.5,25.047,42.5,27.5C42.5,27.979,42.555,28.445,42.641,28.899L18.74,42.841L21.26,47.159L45.152,33.222Z"
    stroke="none"></path></svg>
