<?xml version="1.0" encoding="UTF-8" standalone="no"?>
<!DOCTYPE svg PUBLIC "-//W3C//DTD SVG 1.1//EN" "http://www.w3.org/Graphics/SVG/1.1/DTD/svg11.dtd">
<svg width="0.5389in" height="0.5389in" viewBox="0 0 39 39" version="1.1" xmlns="http://www.w3.org/2000/svg" xmlns:xlink="http://www.w3.org/1999/xlink" xml:space="preserve" xmlns:serif="http://www.serif.com/" style="fill-rule:evenodd;clip-rule:evenodd;stroke-linejoin:round;stroke-miterlimit:1.41421;">
  <path d="M34.022,21.012l-22.076,-0.054l0.054,-11.878l-3.854,0l-0.064,11.878l-3.1,0.036c-0.409,0 0.403,-0.017 0,0c-2.192,0.095 -2.982,1.455 -2.982,3.008l0,8.028c0,1.924 0.862,2.97 2.982,2.97l29.041,0c1.996,0 2.971,-1.191 2.977,-2.97c0.012,-3.284 0,1.3 0,0l0,-8.028c0,-1.924 -0.858,-2.99 -2.978,-2.99Z" style="fill:#205867;"/>
  <rect x="0" y="0" width="38.8" height="38.8" style="fill:none;"/>
  <path d="M17,26.818c0,-0.552 -0.448,-1 -1,-1l-2,0c-0.552,0 -1,0.448 -1,1l0,2.234c0,0.552 0.448,1 1,1l2,0c0.552,0 1,-0.448 1,-1l0,-2.234Z" style="fill:#fff;"/>
  <path d="M31.628,26.818c0,-0.552 -0.448,-1 -1,-1l-2,0c-0.552,0 -1,0.448 -1,1l0,2.234c0,0.552 0.448,1 1,1l2,0c0.552,0 1,-0.448 1,-1l0,-2.234Z" style="fill:#fff;"/>
  <path d="M24.358,26.818c0,-0.552 -0.448,-1 -1,-1l-2,0c-0.552,0 -1,0.448 -1,1l0,2.234c0,0.552 0.448,1 1,1l2,0c0.552,0 1,-0.448 1,-1l0,-2.234Z" style="fill:#fff;"/>
  <path id="shape103-5" d="M31.337,0.848c-1.047,0 -1.876,0.829 -1.876,1.855c0,0.327 0.088,0.611 0.218,0.872l-3.076,3.011c-0.436,-0.327 -0.959,-0.524 -1.527,-0.524c-0.589,0 -1.112,0.197 -1.549,0.524l-2.399,-2.356c0.109,-0.175 0.174,-0.393 0.174,-0.611c0,-0.676 -0.567,-1.222 -1.265,-1.222c-0.698,0 -1.265,0.546 -1.265,1.222c0,0.676 0.567,1.222 1.265,1.222c0.24,0 0.458,-0.066 0.633,-0.175l2.399,2.356c-0.327,0.415 -0.523,0.938 -0.523,1.505c0,0.568 0.196,1.091 0.523,1.506l-3.97,3.883c-0.327,-0.306 -0.785,-0.48 -1.265,-0.48c-1.047,0 -1.876,0.829 -1.876,1.832c0,1.026 0.85,1.833 1.876,1.833c1.047,0 1.876,-0.829 1.876,-1.833c0,-0.305 -0.087,-0.61 -0.218,-0.872l4.035,-3.949c0.35,0.262 0.764,0.437 1.222,0.502l0,3.12c-0.894,0.152 -1.571,0.894 -1.571,1.81c0,1.026 0.851,1.833 1.877,1.833c1.047,0 1.876,-0.829 1.876,-1.833c0,-0.916 -0.677,-1.68 -1.571,-1.81l0,-3.12c0.458,-0.044 0.873,-0.24 1.222,-0.502l2.399,2.356c-0.109,0.175 -0.174,0.393 -0.174,0.611c0,0.676 0.567,1.222 1.243,1.222c0.698,0 1.266,-0.546 1.266,-1.222c0,-0.676 -0.568,-1.222 -1.266,-1.222c-0.24,0 -0.436,0.066 -0.632,0.175l-2.4,-2.356c0.327,-0.415 0.523,-0.938 0.523,-1.505c0,-0.568 -0.196,-1.091 -0.523,-1.506l3.032,-2.967c0.371,0.328 0.807,0.502 1.287,0.502c1.048,0 1.877,-0.829 1.877,-1.832c0.021,-1.026 -0.829,-1.855 -1.877,-1.855Z" style="fill:#7f7f7f;"/>
</svg>
